<mxfile host="app.diagrams.net" modified="2020-06-01T05:58:52.930Z" agent="5.0 (Windows NT 10.0; Win64; x64) AppleWebKit/537.36 (KHTML, like Gecko) Chrome/83.0.4103.61 Safari/537.36 Edg/83.0.478.37" etag="0OZxG7XnOAGSQjmpp79d" version="13.1.11" type="github">
  <diagram id="CalV7spZe0ttn7tdiSIR" name="第 1 页">
    <mxGraphModel dx="1230" dy="876" grid="1" gridSize="10" guides="1" tooltips="1" connect="1" arrows="1" fold="1" page="1" pageScale="1" pageWidth="827" pageHeight="1169" math="0" shadow="0">
      <root>
        <mxCell id="0" />
        <mxCell id="1" parent="0" />
        <mxCell id="xjZ5U-POxhpRdYM-9Ca2-1" value="数据对象LczDesigner.Data.***&lt;br&gt;" style="rounded=0;whiteSpace=wrap;html=1;" parent="1" vertex="1">
          <mxGeometry x="160" y="640" width="240" height="60" as="geometry" />
        </mxCell>
        <mxCell id="xjZ5U-POxhpRdYM-9Ca2-2" value="H开头的数据对象" style="rounded=0;whiteSpace=wrap;html=1;" parent="1" vertex="1">
          <mxGeometry x="122" y="270" width="220" height="60" as="geometry" />
        </mxCell>
        <mxCell id="xjZ5U-POxhpRdYM-9Ca2-3" value="底层数据对象" style="rounded=0;whiteSpace=wrap;html=1;" parent="1" vertex="1">
          <mxGeometry x="12" y="380" width="210" height="60" as="geometry" />
        </mxCell>
        <mxCell id="xjZ5U-POxhpRdYM-9Ca2-4" value="" style="endArrow=classic;html=1;entryX=0.5;entryY=0;entryDx=0;entryDy=0;exitX=0.5;exitY=1;exitDx=0;exitDy=0;" parent="1" source="xjZ5U-POxhpRdYM-9Ca2-2" target="xjZ5U-POxhpRdYM-9Ca2-1" edge="1">
          <mxGeometry width="50" height="50" relative="1" as="geometry">
            <mxPoint x="322" y="400" as="sourcePoint" />
            <mxPoint x="372" y="350" as="targetPoint" />
          </mxGeometry>
        </mxCell>
        <mxCell id="xjZ5U-POxhpRdYM-9Ca2-5" value="" style="endArrow=classic;html=1;entryX=0.5;entryY=0;entryDx=0;entryDy=0;exitX=0.5;exitY=1;exitDx=0;exitDy=0;" parent="1" source="xjZ5U-POxhpRdYM-9Ca2-3" target="xjZ5U-POxhpRdYM-9Ca2-1" edge="1">
          <mxGeometry width="50" height="50" relative="1" as="geometry">
            <mxPoint x="402" y="480" as="sourcePoint" />
            <mxPoint x="452" y="430" as="targetPoint" />
          </mxGeometry>
        </mxCell>
        <mxCell id="xjZ5U-POxhpRdYM-9Ca2-6" value="界面" style="rounded=0;whiteSpace=wrap;html=1;" parent="1" vertex="1">
          <mxGeometry x="372" y="60" width="200" height="60" as="geometry" />
        </mxCell>
        <mxCell id="xjZ5U-POxhpRdYM-9Ca2-7" value="界面对应的数据对象" style="rounded=0;whiteSpace=wrap;html=1;" parent="1" vertex="1">
          <mxGeometry x="212" y="160" width="200" height="60" as="geometry" />
        </mxCell>
        <mxCell id="xjZ5U-POxhpRdYM-9Ca2-8" value="" style="endArrow=classic;html=1;entryX=0.5;entryY=0;entryDx=0;entryDy=0;" parent="1" source="xjZ5U-POxhpRdYM-9Ca2-6" target="xjZ5U-POxhpRdYM-9Ca2-7" edge="1">
          <mxGeometry width="50" height="50" relative="1" as="geometry">
            <mxPoint x="322" y="400" as="sourcePoint" />
            <mxPoint x="372" y="350" as="targetPoint" />
          </mxGeometry>
        </mxCell>
        <mxCell id="xjZ5U-POxhpRdYM-9Ca2-11" value="" style="endArrow=classic;startArrow=classic;html=1;entryX=0.5;entryY=1;entryDx=0;entryDy=0;exitX=0.5;exitY=0;exitDx=0;exitDy=0;" parent="1" source="xjZ5U-POxhpRdYM-9Ca2-3" target="xjZ5U-POxhpRdYM-9Ca2-2" edge="1">
          <mxGeometry width="50" height="50" relative="1" as="geometry">
            <mxPoint x="382" y="360" as="sourcePoint" />
            <mxPoint x="432" y="310" as="targetPoint" />
          </mxGeometry>
        </mxCell>
        <mxCell id="xjZ5U-POxhpRdYM-9Ca2-12" value="" style="endArrow=classic;startArrow=classic;html=1;entryX=0.5;entryY=1;entryDx=0;entryDy=0;exitX=0.5;exitY=0;exitDx=0;exitDy=0;" parent="1" source="xjZ5U-POxhpRdYM-9Ca2-2" target="xjZ5U-POxhpRdYM-9Ca2-7" edge="1">
          <mxGeometry width="50" height="50" relative="1" as="geometry">
            <mxPoint x="152" y="250" as="sourcePoint" />
            <mxPoint x="202" y="200" as="targetPoint" />
          </mxGeometry>
        </mxCell>
        <mxCell id="xjZ5U-POxhpRdYM-9Ca2-13" value="" style="endArrow=classic;html=1;exitX=0.5;exitY=1;exitDx=0;exitDy=0;entryX=0.5;entryY=0;entryDx=0;entryDy=0;" parent="1" source="xjZ5U-POxhpRdYM-9Ca2-6" target="xjZ5U-POxhpRdYM-9Ca2-1" edge="1">
          <mxGeometry width="50" height="50" relative="1" as="geometry">
            <mxPoint x="322" y="400" as="sourcePoint" />
            <mxPoint x="372" y="350" as="targetPoint" />
          </mxGeometry>
        </mxCell>
        <mxCell id="1KcmmYKC7WvlnKZ34BPB-1" value="业务工程LczDesigner.Service.***" style="rounded=0;whiteSpace=wrap;html=1;" vertex="1" parent="1">
          <mxGeometry x="480" y="520" width="238" height="60" as="geometry" />
        </mxCell>
        <mxCell id="1KcmmYKC7WvlnKZ34BPB-2" value="" style="endArrow=classic;html=1;exitX=0.5;exitY=1;exitDx=0;exitDy=0;entryX=0.5;entryY=0;entryDx=0;entryDy=0;" edge="1" parent="1" source="1KcmmYKC7WvlnKZ34BPB-1" target="xjZ5U-POxhpRdYM-9Ca2-1">
          <mxGeometry width="50" height="50" relative="1" as="geometry">
            <mxPoint x="380" y="460" as="sourcePoint" />
            <mxPoint x="280" y="480" as="targetPoint" />
          </mxGeometry>
        </mxCell>
        <mxCell id="1KcmmYKC7WvlnKZ34BPB-3" value="" style="endArrow=classic;html=1;exitX=0.5;exitY=1;exitDx=0;exitDy=0;entryX=0.5;entryY=0;entryDx=0;entryDy=0;" edge="1" parent="1" source="xjZ5U-POxhpRdYM-9Ca2-6" target="1KcmmYKC7WvlnKZ34BPB-1">
          <mxGeometry width="50" height="50" relative="1" as="geometry">
            <mxPoint x="380" y="460" as="sourcePoint" />
            <mxPoint x="430" y="410" as="targetPoint" />
          </mxGeometry>
        </mxCell>
        <mxCell id="1KcmmYKC7WvlnKZ34BPB-4" value="" style="endArrow=classic;html=1;exitX=0.5;exitY=1;exitDx=0;exitDy=0;entryX=0.5;entryY=0;entryDx=0;entryDy=0;" edge="1" parent="1" source="xjZ5U-POxhpRdYM-9Ca2-7" target="1KcmmYKC7WvlnKZ34BPB-1">
          <mxGeometry width="50" height="50" relative="1" as="geometry">
            <mxPoint x="380" y="460" as="sourcePoint" />
            <mxPoint x="430" y="410" as="targetPoint" />
          </mxGeometry>
        </mxCell>
        <mxCell id="1KcmmYKC7WvlnKZ34BPB-5" value="" style="endArrow=classic;html=1;exitX=0.5;exitY=1;exitDx=0;exitDy=0;entryX=0.5;entryY=0;entryDx=0;entryDy=0;" edge="1" parent="1" source="xjZ5U-POxhpRdYM-9Ca2-2" target="1KcmmYKC7WvlnKZ34BPB-1">
          <mxGeometry width="50" height="50" relative="1" as="geometry">
            <mxPoint x="380" y="460" as="sourcePoint" />
            <mxPoint x="430" y="410" as="targetPoint" />
          </mxGeometry>
        </mxCell>
        <mxCell id="1KcmmYKC7WvlnKZ34BPB-6" value="" style="endArrow=classic;html=1;exitX=0.5;exitY=1;exitDx=0;exitDy=0;entryX=0.5;entryY=0;entryDx=0;entryDy=0;" edge="1" parent="1" source="xjZ5U-POxhpRdYM-9Ca2-3" target="1KcmmYKC7WvlnKZ34BPB-1">
          <mxGeometry width="50" height="50" relative="1" as="geometry">
            <mxPoint x="380" y="460" as="sourcePoint" />
            <mxPoint x="430" y="410" as="targetPoint" />
          </mxGeometry>
        </mxCell>
        <mxCell id="1KcmmYKC7WvlnKZ34BPB-11" value="界面层" style="text;html=1;align=center;verticalAlign=middle;resizable=0;points=[];autosize=1;" vertex="1" parent="1">
          <mxGeometry x="750" y="440" width="50" height="20" as="geometry" />
        </mxCell>
        <mxCell id="1KcmmYKC7WvlnKZ34BPB-12" value="业务层" style="text;html=1;align=center;verticalAlign=middle;resizable=0;points=[];autosize=1;" vertex="1" parent="1">
          <mxGeometry x="750" y="560" width="50" height="20" as="geometry" />
        </mxCell>
        <mxCell id="1KcmmYKC7WvlnKZ34BPB-13" value="数据层" style="text;html=1;align=center;verticalAlign=middle;resizable=0;points=[];autosize=1;" vertex="1" parent="1">
          <mxGeometry x="750" y="660" width="50" height="20" as="geometry" />
        </mxCell>
        <mxCell id="1KcmmYKC7WvlnKZ34BPB-14" value="" style="endArrow=none;dashed=1;html=1;" edge="1" parent="1">
          <mxGeometry width="50" height="50" relative="1" as="geometry">
            <mxPoint y="480" as="sourcePoint" />
            <mxPoint x="800" y="480" as="targetPoint" />
          </mxGeometry>
        </mxCell>
        <mxCell id="1KcmmYKC7WvlnKZ34BPB-15" value="" style="endArrow=none;dashed=1;html=1;" edge="1" parent="1">
          <mxGeometry width="50" height="50" relative="1" as="geometry">
            <mxPoint y="600" as="sourcePoint" />
            <mxPoint x="800" y="600" as="targetPoint" />
          </mxGeometry>
        </mxCell>
      </root>
    </mxGraphModel>
  </diagram>
</mxfile>
